<svg xmlns="http://www.w3.org/2000/svg" viewBox="0 0 32 32" fill="none">
  <rect width="32" height="32" rx="7" fill="#050508"/>
  <ellipse cx="16" cy="11" rx="12" ry="10" fill="#ff6b9d" opacity="0.18"/>
  <ellipse cx="22" cy="22" rx="8" ry="7" fill="#d4af37" opacity="0.1"/>
  <path
    fill="url(#heart)"
    d="M16 25.2c-.2 0-.4-.1-.5-.2C15.2 24.8 7 19.6 7 13.2c0-3.4 2.7-6.1 6.1-6.1 1.8 0 3.4.8 4.4 2.1.9-1.3 2.6-2.1 4.4-2.1 3.4 0 6.1 2.7 6.1 6.1 0 6.4-8.1 11.5-8.4 11.8-.1.1-.3.2-.5.2z"
  />
  <path
    fill="#f0d78c"
    opacity="0.9"
    d="M23.2 8.8l.55 1.12 1.23.18-.89.87.21 1.22-1.1-.58-1.1.58.21-1.22-.89-.87 1.23-.18.55-1.12z"
  />
  <defs>
    <linearGradient id="heart" x1="7" y1="8" x2="25" y2="25" gradientUnits="userSpaceOnUse">
      <stop stop-color="#ffb3cc"/>
      <stop offset="0.45" stop-color="#ff6b9d"/>
      <stop offset="1" stop-color="#d4af37"/>
    </linearGradient>
  </defs>
</svg>
